<?xml version="1.0" encoding="utf-8"?>
<!-- Generator: Adobe Illustrator 16.2.1, SVG Export Plug-In . SVG Version: 6.00 Build 0)  -->
<!DOCTYPE svg PUBLIC "-//W3C//DTD SVG 1.1//EN" "http://www.w3.org/Graphics/SVG/1.1/DTD/svg11.dtd">
<svg version="1.1" id="Layer_1" xmlns="http://www.w3.org/2000/svg" xmlns:xlink="http://www.w3.org/1999/xlink" x="0px" y="0px"
	 width="20px" height="20px" viewBox="0 0 20 20" enable-background="new 0 0 20 20" xml:space="preserve">
<g id="yxRMDe_1_">
</g>
<path fill="#515C4D" d="M10.475,15.23c-0.015-0.131-0.178-0.163-0.244-0.091c-0.046,0.017-0.084,0.057-0.086,0.121
	c-0.022,0.962-0.395,1.883-0.33,2.851c0.003,0.053,0.032,0.09,0.068,0.11c0.043,0.122,0.258,0.104,0.261-0.051
	C10.168,17.174,10.591,16.235,10.475,15.23z"/>
<g>
	<path fill="#515C4D" d="M19.336,8.601c-0.251,0.111-0.463,0.208-0.678,0.298c-0.23,0.097-0.506,0.075-0.675,0.296
		c-0.059-0.051-0.091-0.08-0.125-0.109c-0.202,0.119-0.405,0.239-0.606,0.358c-0.052-0.036-0.099-0.068-0.155-0.106
		c-0.187,0.128-0.373,0.255-0.552,0.379c-0.037-0.022-0.06-0.038-0.084-0.052c-0.037-0.02-0.074-0.038-0.115-0.059
		c-0.218,0.185-0.386,0.415-0.611,0.574c-0.093-0.078-0.163-0.137-0.229-0.192c-0.151,0.193-0.285,0.365-0.397,0.51
		c-0.123-0.035-0.215,0-0.301-0.025C14.71,10.633,14.623,11,14.523,11c-0.082,0-0.183,0-0.264,0c-0.16,0-0.303,0.317-0.441,0.489
		c-0.167-0.049-0.293-0.005-0.317,0.102c-0.036,0.153-0.143,0.249-0.24,0.282c-0.316,0.112-0.396,0.384-0.532,0.631
		c-0.032-0.029-0.064-0.062-0.103-0.097c-0.332,0.363-0.511,0.852-0.936,1.137c-0.194,0.361-0.536,0.601-0.768,0.932
		c-0.011,0.016-0.078-0.008-0.115-0.012c-0.008-0.042,0.013-0.081,0.025-0.097c0.514-0.696,0.668-1.428,1.668-2.01
		c0-0.108,0-0.195,0-0.331c0-0.159,1-0.338,1-0.541c0-0.048,0-0.135,0-0.208c0-0.209,0.13-0.374,0.286-0.586
		c-0.052-0.059,0.058-0.092,0.025-0.128c0.18-0.174,0.688-0.35,0.688-0.53c0-0.107,0-0.208,0-0.386c0-0.11-0.022-0.251,0.105-0.38
		c-0.017-0.006-0.207-0.025-0.244-0.038c0.148-0.188,0.226-0.373,0.349-0.529c-0.042-0.097-0.1-0.148-0.118-0.189
		c0.13-0.163,0.284-0.267,0.379-0.453c-0.08-0.04-0.148-0.07-0.25-0.12c0.172-0.16,0.33-0.309,0.485-0.453
		c-0.005-0.071-0.01-0.128-0.014-0.18c-0.065-0.023-0.118-0.042-0.213-0.076c0.178-0.171,0.335-0.324,0.493-0.476
		c-0.004-0.061-0.008-0.118-0.011-0.169c-0.071-0.029-0.129-0.053-0.181-0.075c0.078-0.32,0.405-0.49,0.366-0.821
		c-0.073-0.03-0.131-0.054-0.185-0.076c0.063-0.283,0.339-0.462,0.268-0.743c-0.077-0.026-0.122-0.042-0.159-0.055
		c0.057-0.108,0.103-0.195,0.146-0.276c0.025-0.243,0.051-0.485,0.08-0.759c0.002,0.002-0.028-0.03-0.05-0.054
		c0.058-0.237,0.141-0.465,0.165-0.7c0.024-0.236,0.272-0.427,0.149-0.712c-0.11,0.209-0.199,0.399-0.306,0.578
		c-0.117,0.193-0.262,0.37-0.372,0.567c-0.096,0.172,0.027,0.265,0.038,0.439C15.314,3.975,15.5,4.021,15.5,4.075
		c0,0.104,0,0.205,0,0.308c0,0.01-0.492,0.019-0.56,0.026C14.89,4.556,14.673,4.7,14.62,4.855c-0.043-0.038-0.011-0.065-0.047-0.097
		C14.536,4.801,14.5,4.845,14.5,4.914c0,0.101,0,0.086,0,0.086s-0.534,0-0.618,0c-0.053,0-0.098,0.573-0.142,0.764
		c-0.083,0.009-0.24,0.171-0.24,0.181c0,0.163,0,0.325,0,0.47c0,0.058-0.101,0.101-0.144,0.143
		c-0.031-0.028,0.128-0.056,0.096-0.085C13.41,6.515,13.5,6.557,13.5,6.616c0,0.146,0,0.307,0,0.5c0-0.035-0.355-0.061-0.442-0.093
		c-0.046,0.268-0.187,0.533-0.233,0.803c-0.103-0.034-0.248-0.065-0.332-0.093c-0.048,0.289,0.112,0.542,0.072,0.786
		c-0.105,0.02-0.064,0.035-0.064,0.05c0,0.199,0,0.379,0,0.576c0,0.049-0.385,0.102-0.48,0.163c-0.042,0.23-0.201,0.482-0.248,0.741
		c-0.041,0.015-0.149,0.033-0.197,0.051c-0.044,0.291-0.115,0.573-0.16,0.868c-0.035-0.027-0.079-0.051-0.142-0.101
		c-0.056,0.131-0.113,0.251-0.163,0.37c-0.031-0.027-0.064-0.063-0.102-0.084c-0.042-0.023-0.092-0.032-0.135-0.046
		c0.104-0.251,0.193-0.469,0.281-0.684c-0.071-0.13-0.14-0.228-0.027-0.394c0.1-0.145,0.225-0.347,0.03-0.549
		C11.12,9.44,11.176,9.321,11.2,9.238c0.056-0.193,0.212-0.384,0.1-0.598c-0.055-0.012-0.096-0.02-0.138-0.029
		c0.098-0.253,0.191-0.495,0.285-0.739c-0.087-0.041-0.149-0.07-0.231-0.109c0.043-0.124,0.058-0.263,0.131-0.356
		c0.1-0.124,0.065-0.243,0.061-0.369C11.351,7.018,11.299,7,11.234,6.976c0.094-0.279,0.186-0.553,0.28-0.833
		c-0.061-0.021-0.113-0.041-0.196-0.07c0.018-0.104,0.018-0.221,0.06-0.32c0.055-0.129,0.058-0.244,0.013-0.35
		c-0.065-0.017-0.105-0.027-0.139-0.037c-0.075-0.271,0.181-0.507,0.058-0.753c-0.085,0.015-0.165,0.027-0.263,0.043
		c0.077-0.272,0.22-0.401,0.191-0.653C11.235,3.98,11.205,4,11.172,4c-0.055,0-0.125,0-0.2,0c0.163,0,0.054-0.542,0.091-0.757
		c-0.074-0.019-0.115-0.07-0.162-0.082c-0.037-0.356-0.031-0.748-0.124-1.09c-0.097-0.357-0.158-0.729-0.209-1.089
		c-0.055-0.379-0.035-0.773-0.05-1.158c-0.002-0.062-0.016-0.125-0.025-0.187c-0.075,0.377-0.104,0.812-0.157,1.183
		C10.283,1.197,10.205,2,10.139,2c-0.057,0-0.086,0-0.131,0c0.025,0-0.135,0.142-0.113,0.237C9.824,2.311,9.5,2.314,9.5,2.397
		c0,0.113,0,0.244,0,0.369c0,0.013,0.086,0.021,0.014,0.037C9.531,2.967,9.641,3.13,9.661,3.318C9.65,3.329,9.656,3.367,9.618,3.404
		C9.582,3.374,9.574,3.349,9.49,3.28c0.046,0.314-0.031,0.579,0.093,0.838C9.501,4.127,9.436,4.135,9.326,4.146
		c0.026,0.23,0.055,0.453,0.082,0.686c-0.065,0.01-0.146,0.022-0.246,0.037c0.068,0.206,0.132,0.396,0.196,0.59
		C9.238,5.478,9.159,5.491,9.102,5.5c0.064,0.204,0.122,0.386,0.179,0.566C9.191,6.099,9.14,6.119,9.091,6.137
		C9.025,6.442,9.186,6.694,9.274,6.98C9.17,7.001,9.077,7.02,8.965,7.043c0.08,0.262,0.152,0.5,0.223,0.733
		C9.094,7.815,9.035,7.839,8.983,7.861C9.077,8.134,9.159,8.375,9.24,8.614c-0.1,0.016-0.178,0.03-0.254,0.042
		C9.016,8.98,9.281,9.2,9.258,9.503c-0.079,0.027-0.13,0.044-0.177,0.06c-0.027,0.351,0.305,0.604,0.249,0.939
		c-0.075,0.021-0.115,0.031-0.131,0.036c0.082,0.274,0.169,0.536,0.235,0.804c0.017,0.067-0.035,0.153-0.051,0.214
		c0.095,0.343,0.258,0.657,0.246,1.03c-0.007,0.206,0.07,0.417,0.118,0.623c0.07,0.299,0.217,0.589,0.106,0.927
		c-0.142-0.278-0.283-0.533-0.36-0.818c-0.077-0.283-0.242-0.542-0.232-0.849c-0.142-0.141-0.049-0.46-0.363-0.449
		c0.019-0.357-0.042-0.673-0.202-0.976c-0.053,0.046-0.084,0.073-0.113,0.098c-0.047-0.045-0.09-0.087-0.139-0.134
		c0.072-0.343-0.165-0.619-0.198-0.975c-0.09,0.05-0.148,0.083-0.226,0.126C7.982,9.982,7.946,9.803,7.909,9.625
		C7.858,9.38,7.758,9.236,7.56,9.113C7.512,8.915,7.466,8.726,7.414,8.509c-0.076,0.044-0.133,0.077-0.226,0.13
		C7.209,8.368,7.161,8.126,7.03,7.881C6.966,7.924,6.92,7.956,6.867,7.992c-0.25-0.196-0.086-0.6-0.353-0.796
		C6.469,7.23,6.441,7.251,6.386,7.293C6.313,7.088,6.251,6.91,6.185,6.721C6.115,6.775,6.084,6.809,6.045,6.827
		C6.023,6.836,5.99,6.821,5.923,6.812c0.02-0.207,0.018-0.423-0.122-0.604c-0.021,0.016-0.04,0.035-0.063,0.046
		C5.701,6.271,5.661,6.284,5.623,6.299C5.531,6.045,5.443,5.802,5.351,5.545c-0.088,0.042-0.146,0.07-0.217,0.104
		C5.085,5.375,5.053,5.086,4.722,5.096c-0.17-0.151-0.08-0.406-0.284-0.504C4.396,4.622,4.37,4.642,4.351,4.655
		c-0.078-0.14-0.12-0.291-0.218-0.377C3.758,3.947,3.59,3.465,3.251,3.107c-0.136-0.145-0.217-0.341-0.36-0.574
		C2.88,2.655,2.856,2.711,2.875,2.734c0.224,0.282,0.277,0.636,0.414,0.955c0.054,0.125,0.04,0.219-0.056,0.309
		c0.181,0.376,0.19,0.431,0.106,0.646c0.104,0.179,0.21,0.358,0.314,0.537C3.608,5.201,3.548,5.229,3.479,5.26
		c0.112,0.187,0.213,0.353,0.303,0.504C3.729,5.835,3.695,5.881,3.666,5.92c0.133,0.18,0.254,0.345,0.381,0.517
		C3.955,6.476,3.898,6.5,3.834,6.526c0.133,0.26,0.399,0.362,0.495,0.62c-0.056,0.018-0.094,0.03-0.133,0.042
		c-0.04,0.013-0.08,0.028-0.115,0.04c0.267,0.267,0.484,0.485,0.729,0.73C4.667,7.991,4.581,8.01,4.463,8.036
		C4.667,8.22,4.838,8.374,5.027,8.544C5.005,8.59,4.968,8.664,4.945,8.709c0.068,0.317,0.479,0.293,0.542,0.604
		C5.418,9.34,5.366,9.359,5.283,9.391c0.196,0.176,0.381,0.342,0.593,0.533c-0.084,0.036-0.144,0.061-0.23,0.098
		c0.214,0.2,0.42,0.394,0.637,0.596c-0.024,0.049-0.227,0.124-0.263,0.194c0.22,0.158,0.48,0.307,0.48,0.465
		c0,0.095,0,0.196,0,0.289c0,0.153,0.57,0.295,0.783,0.451c0.005,0.042,0.096,0.112,0.104,0.179
		c0.237,0.237,0.517,0.465,0.743,0.706c0.138,0.147,0.246,0.372,0.411,0.458c0.398,0.209,0.584,0.611,0.883,0.903
		c0.064,0.063,0.07,0.192,0.11,0.325c-0.324-0.153-0.776-0.603-1.215-1.178c-0.059,0.033-0.116,0.066-0.15,0.085
		c-0.196-0.26-0.375-0.5-0.558-0.742c-0.041,0.041-0.062,0.062-0.108,0.109c-0.178-0.213-0.354-0.425-0.522-0.628
		c-0.067,0.043-0.114,0.073-0.14,0.09c-0.188-0.202-0.361-0.388-0.528-0.567c-0.083,0.049-0.128,0.075-0.147,0.087
		c-0.25-0.11-0.312-0.419-0.582-0.51c-0.016,0.082-0.025,0.123-0.042,0.205c-0.202-0.235-0.382-0.445-0.562-0.654
		c-0.06,0.06-0.113,0.113-0.156,0.157c-0.208-0.209-0.417-0.418-0.627-0.627c-0.093,0.085-0.166,0.152-0.23,0.212
		c-0.187-0.167-0.35-0.313-0.512-0.459c-0.041,0.031-0.085,0.064-0.124,0.094c-0.168-0.106-0.322-0.204-0.475-0.299
		c-0.051,0.043-0.084,0.072-0.114,0.097C2.585,9.947,2.427,9.835,2.27,9.723C2.247,9.746,2.229,9.779,2.204,9.785
		C2.166,9.793,2.119,9.792,2.083,9.778C1.586,9.565,1.048,9.458,0.575,9.18c-0.052-0.03-0.145,0.009-0.218,0.017
		C0.345,9.224,0.333,9.25,0.321,9.278c0.629,0.133,0.91,0.703,1.386,1.026c0.11,0.292,0.394,0.382,0.639,0.551
		c-0.032,0.056-0.065,0.113-0.105,0.184c0.092,0.066,0.185,0.191,0.278,0.191c0.272,0,0.242,0.202,0.28,0.365
		c0.178,0.104,0.349,0.205,0.529,0.311c-0.054,0.054-0.075,0.075-0.123,0.123c0.147,0.071,0.313,0.108,0.411,0.21
		c0.118,0.123,0.365,0.006,0.395,0.211c-0.033,0.074-0.057,0.125-0.095,0.209c0.227,0.054,0.43,0.103,0.653,0.157
		c0.004,0.075,0.01,0.176,0.017,0.297c0.23,0.078,0.466,0.158,0.704,0.239c0.006,0.068,0.012,0.139,0.016,0.18
		c0.301,0.172,0.718,0.082,0.841,0.478c0.28,0.045,0.55,0.089,0.843,0.137c0.181,0.157,0.237,0.154,0.543,0.251
		c0.522,0.165,1.033,0.364,1.597,0.566c-0.414,0.17-0.744-0.082-1.053-0.034c-0.126,0.067-0.222-0.037-0.318,0.014
		C7.408,14.808,7.31,15,6.938,15c-0.17,0-0.361,0-0.548,0c-0.01,0-0.187,0.313-0.194,0.38C6.013,15.432,5.5,15.635,5.5,15.683
		c0,0.074,0,0.134,0,0.194c0,0.065-0.139,0.277-0.279,0.434c-0.149,0.167-0.27,0.289-0.458,0.418
		c-0.169,0.116-0.265,0.263-0.41,0.417C4.881,16.919,5.457,16.82,6,16.678c0.13-0.034,0.257-0.07,0.378,0.016
		c0.032,0.023,0.081-0.242,0.116-0.228C6.567,16.396,6.637,16,6.703,16c0.18,0,0.359,0,0.531,0c0.138,0,0.292,0.065,0.476,0.1
		c0.173,0.032,0.304,0.074,0.448,0.018c0.114-0.045,0.22-0.045,0.312-0.094c0.069,0.05,0.114,0.116,0.162,0.15
		c0.45-0.248,0.885-0.469,1.317-0.707c0.038,0.038,0.07,0.078,0.102,0.11c0.084,0.578-0.021,1.153-0.06,1.726
		c-0.015,0.1-0.03,0.205-0.039,0.305c-0.001,0.007-0.002,0.014-0.004,0.021c-0.051,0.1-0.068,0.2-0.066,0.302
		c-0.038,0.189-0.091,0.303,0.047,0.322c0.006,0.03,0.012,0.06,0.018,0.09c0.006-0.028,0.009-0.059,0.011-0.088
		c0.034,0.001,0.074-0.001,0.126-0.007l0.09,0.015c-0.03-0.039-0.048-0.094-0.056-0.158c-0.028-0.095-0.055-0.213-0.076-0.339
		c0.02-0.071,0.031-0.143,0.032-0.213c0.002,0.042,0.005,0.083,0.01,0.126c0.011-0.015,0.021-0.032,0.03-0.05
		c-0.009-0.073-0.022-0.144-0.039-0.213c-0.002,0.033-0.001,0.066-0.001,0.1c-0.001-0.037-0.004-0.073-0.011-0.109
		c-0.003-0.019-0.004-0.037-0.004-0.055c0.006,0.021,0.012,0.042,0.017,0.064c0.006-0.112,0.024-0.219,0.048-0.324
		c0.009-0.024,0.017-0.05,0.023-0.075c0.051,0.191,0.046,0.457-0.032,0.612c0.007,0.051,0.012,0.103,0.017,0.154
		c0.035-0.243,0.109-0.499,0.134-0.615c0.105-0.6,0.24-1.155,0.195-1.755c-0.03,0.33-0.121,0.705-0.18,1.035
		c-0.031,0.172-0.079,0.334-0.121,0.497c0.001-0.014,0.003-0.028,0.002-0.042c-0.002-0.053-0.003-0.105-0.004-0.157
		c0.016-0.06,0.032-0.119,0.048-0.178c0.075-0.24,0.134-0.48,0.18-0.735c0.022-0.112,0.036-0.341,0.092-0.481
		c0.037-0.011,0.075-0.021,0.114-0.033c0,0,0.019,0.037,0.043,0.04c0.418,0.065,0.797,0.25,1.195,0.373
		c0.458,0.142,0.92,0.305,1.415,0.286c0.063-0.003,0.125,0.058,0.192,0.075c0.15,0.039,0.333,0.137,0.446,0.085
		c0.182-0.083,0.307-0.11,0.478,0.008c0.068,0.047,0.194,0.001,0.283,0.001C14.66,16.104,14.668,16,14.68,16
		c0.226,0,0.447,0,0.608,0c0.128,0,0.199-0.104,0.277-0.135c0.248-0.097,0.515-0.143,0.768-0.199
		c0.354-0.079,0.737-0.018,1.108-0.018c-0.18-0.129-0.391-0.22-0.55-0.333C16.711,15.19,16.423,15,16.34,15c-0.139,0-0.258,0-0.38,0
		c-0.169-1-0.411-0.123-0.623-0.124c-0.232-0.203-0.232-0.176-0.483-0.047c-0.045-0.064-0.096-0.125-0.152-0.204
		c-0.165,0.025-0.315,0.056-0.471,0.08c-0.011-0.028-0.031-0.076-0.057-0.142c-0.069,0.008-0.167-0.008-0.204,0.032
		c-0.09,0.098-0.223,0.097-0.287,0.057c-0.286-0.178-0.504,0.039-0.682,0.083c-0.17-0.033-0.282-0.081-0.388-0.07
		c-0.341,0.035-0.681,0.091-1.021,0.14c-0.012,0.002-0.02,0.024-0.032,0.03c-0.185,0.088-0.375,0.137-0.651,0.054
		c0.576-0.243,1.085-0.48,1.611-0.671c0.29-0.105,0.55-0.229,0.738-0.454c0.273-0.013,0.46-0.169,0.662-0.297
		c0.131-0.083,0.257-0.183,0.43-0.158c0.167,0.024,0.283-0.078,0.442-0.15c-0.059-0.079-0.092-0.123-0.149-0.198
		c0.308-0.136,0.612-0.271,0.912-0.403c-0.036-0.064-0.069-0.124-0.109-0.196c0.186-0.054,0.346-0.102,0.457-0.134
		c0.097-0.11,0.17-0.191,0.238-0.269c-0.01-0.022-0.033-0.073-0.055-0.123c0.225-0.117,0.435-0.227,0.631-0.329
		c0.012-0.1,0.021-0.171,0.024-0.207c0.195-0.127,0.369-0.241,0.543-0.354c-0.048-0.06-0.072-0.09-0.11-0.136
		c0.184-0.104,0.355-0.2,0.54-0.305c-0.007-0.217,0.048-0.379,0.318-0.354c0.042,0.004,0.093-0.083,0.122-0.11
		c-0.04-0.082-0.064-0.132-0.088-0.181C18.336,9.706,19.031,9.019,19.336,8.601z M10.158,16.293
		c0.001-0.037,0.002-0.075,0.004-0.113c0.015-0.244,0.056-0.486,0.088-0.728c0.003-0.026,0.028-0.048,0.027-0.046
		c0.014-0.004,0.027-0.008,0.041-0.012C10.303,15.708,10.228,16,10.158,16.293z"/>
	<path fill="#515C4D" d="M10.118,18.103c0.009,0.03,0.018,0.058,0.026,0.083c0-0.132-0.003-0.27-0.014-0.405
		C10.113,17.896,10.106,18.01,10.118,18.103z"/>
</g>
<path opacity="0.2" fill="#D7FFC0" d="M10.362,15.041c-0.013-0.108-0.147-0.134-0.201-0.075c-0.039,0.014-0.07,0.047-0.071,0.1
	c-0.019,0.794-0.326,1.554-0.272,2.353c0.003,0.044,0.026,0.074,0.056,0.091c0.036,0.1,0.213,0.086,0.216-0.042
	C10.109,16.646,10.458,15.871,10.362,15.041z"/>
<g opacity="0.2">
	<path fill="#D7FFC0" d="M17.677,9.568c-0.208,0.091-0.383,0.172-0.56,0.246c-0.19,0.08-0.417,0.062-0.557,0.244
		c-0.048-0.042-0.075-0.066-0.103-0.089c-0.167,0.098-0.335,0.197-0.5,0.295c-0.043-0.03-0.082-0.056-0.127-0.087
		c-0.154,0.106-0.308,0.211-0.456,0.313c-0.03-0.019-0.05-0.032-0.07-0.043c-0.03-0.016-0.061-0.031-0.095-0.048
		c-0.18,0.152-0.318,0.342-0.504,0.473c-0.077-0.064-0.134-0.112-0.189-0.159c-0.125,0.16-0.235,0.302-0.328,0.421
		c-0.101-0.028-0.177,0.226-0.249,0.205C13.858,11.472,13.786,12,13.704,12c-0.068,0-0.151,0-0.218,0
		c-0.132,0-0.251,0.037-0.365,0.179c-0.138-0.041-0.242-0.118-0.262-0.03c-0.029,0.126-0.118,0.148-0.198,0.177
		c-0.26,0.092-0.327,0.289-0.44,0.493c-0.026-0.024-0.052-0.065-0.084-0.094c-0.274,0.299-0.421,0.695-0.772,0.93
		c-0.16,0.298-0.443,0.493-0.633,0.767c-0.009,0.014-0.065-0.008-0.096-0.012c-0.006-0.035,0.244-0.068,0.254-0.081
		c0.425-0.575,0.61-1.18,1.61-1.66c0-0.089,0-0.161,0-0.273c0-0.131,0-0.279,0-0.446c0-0.04,0-0.112,0-0.172
		c0-0.173,0.287-0.308,0.415-0.483c-0.042-0.049,0.046-0.076,0.02-0.106c0.148-0.144,0.565-0.289,0.565-0.437
		c0-0.088,0-0.172,0-0.318c0-0.091,0.074-0.208,0.18-0.314c-0.014-0.005-0.124-0.021-0.155-0.031
		c0.123-0.155,0.21-0.308,0.311-0.436C13.8,9.572,13.765,9.531,13.75,9.497c0.107-0.135,0.239-0.22,0.318-0.375
		c-0.065-0.032-0.119-0.057-0.203-0.099c0.143-0.132,0.273-0.255,0.401-0.374c-0.003-0.059-0.007-0.106-0.009-0.148
		c-0.055-0.02-0.098-0.035-0.177-0.063c0.147-0.142,0.278-0.268,0.408-0.393c-0.004-0.05-0.007-0.097-0.01-0.139
		c-0.059-0.024-0.106-0.044-0.149-0.062c0.065-0.264,0.334-0.405,0.302-0.677c-0.06-0.024-0.108-0.045-0.153-0.063
		c0.052-0.234,0.28-0.382,0.221-0.613c-0.063-0.022-0.1-0.035-0.131-0.045c0.047-0.089,0.085-0.161,0.12-0.228
		c0.021-0.201,0.042-0.401,0.066-0.627c0.002,0.002-0.022-0.025-0.041-0.044c0.048-0.196,0.117-0.384,0.137-0.578
		c0.02-0.195,0.225-0.352,0.123-0.587c-0.091,0.173-0.165,0.329-0.253,0.476c-0.096,0.16-0.216,0.306-0.307,0.468
		c-0.078,0.142,0.018,0.218,0.027,0.363C14.352,5.75,14.5,5.789,14.5,5.833c0,0.085,0,0.168,0,0.254
		c0,0.008-0.401,0.015-0.457,0.021c-0.042,0.121-0.218,0.241-0.262,0.368c-0.036-0.031-0.099-0.053-0.129-0.08
		C13.621,6.432,13.5,6.468,13.5,6.525c0,0.083,0-0.525,0,0.475c0,0-0.256,0-0.325,0c-0.044,0,0.239,0.272,0.204,0.428
		C13.309,7.437,13.5,7.368,13.5,7.376c0,0.134,0,0.268,0,0.388c0,0.048-0.403,0.083-0.438,0.118
		c-0.026-0.024-0.235-0.047-0.261-0.07c-0.035,0.035-0.3,0.07-0.3,0.118c0,0.12,0,0.253,0,0.414c0-0.03-0.114-0.051-0.186-0.078
		c-0.038,0.221-0.064,0.44-0.103,0.663c-0.085-0.028-0.16-0.054-0.228-0.077c-0.04,0.239-0.152,0.447-0.186,0.649
		C11.71,9.517,11.5,9.53,11.5,9.542c0,0.164,0,0.312,0,0.476c0,0.04-0.05,0.083-0.129,0.134c-0.035,0.191-0.033,0.398-0.071,0.611
		c-0.034,0.012-0.057,0.028-0.097,0.042c-0.036,0.24-0.061,0.473-0.098,0.717c-0.028-0.022-0.048-0.042-0.1-0.083
		c-0.046,0.108-0.085,0.208-0.127,0.305c-0.025-0.022-0.048-0.052-0.08-0.069c-0.034-0.019-0.074-0.027-0.109-0.039
		c0.085-0.207,0.16-0.387,0.233-0.564c-0.06-0.107-0.116-0.188-0.022-0.324c0.082-0.12,0.186-0.287,0.025-0.454
		c-0.031-0.032,0.015-0.131,0.035-0.199c0.046-0.159,0.175-0.317,0.083-0.493c-0.045-0.009-0.08-0.017-0.114-0.024
		c0.081-0.209,0.157-0.409,0.235-0.609c-0.073-0.034-0.123-0.058-0.191-0.09c0.035-0.102,0.047-0.217,0.108-0.293
		c0.082-0.103,0.054-0.201,0.05-0.305c-0.047-0.017-0.089-0.033-0.143-0.052c0.077-0.231,0.153-0.457,0.23-0.688
		c-0.05-0.018-0.093-0.034-0.161-0.058c0.014-0.085,0.014-0.182,0.049-0.264c0.045-0.107,0.048-0.202,0.011-0.29
		c-0.054-0.014-0.086-0.022-0.114-0.03c-0.062-0.224,0.149-0.418,0.047-0.622c-0.07,0.012-0.136,0.022-0.217,0.036
		c0.063-0.224,0.181-0.716,0.157-0.924C10.989,5.369,10.964,5,10.938,5c-0.045,0-0.103,0-0.165,0c0.134,0,0.045-0.062,0.075-0.24
		c-0.061-0.015-0.094,0.135-0.133,0.125c-0.031-0.293-0.026-0.52-0.103-0.803c-0.08-0.295-0.131-0.554-0.173-0.851
		c-0.044-0.313-0.028-0.614-0.041-0.932c-0.002-0.051-0.013-0.091-0.021-0.142c-0.062,0.312-0.086,0.616-0.13,0.922
		C10.204,3.391,10.139,4,10.084,4c-0.046,0-0.071,0-0.108,0c0.021,0-0.141,0.177-0.122,0.256C9.797,4.317,9.5,4.38,9.5,4.448
		c0,0.093,0,0.201,0,0.304c0,0.01,0.099,0.018,0.039,0.03C9.555,4.918,9.66,5.053,9.676,5.208c-0.009,0.008,0.003,0.041-0.029,0.07
		c-0.03-0.024-0.033-0.045-0.102-0.102c0.039,0.259-0.023,0.479,0.079,0.691C9.557,5.876,9.503,5.882,9.413,5.892
		c0.022,0.19,0.045,0.374,0.068,0.567C9.427,6.466,9.36,6.476,9.277,6.488c0.057,0.17,0.108,0.327,0.162,0.487
		c-0.098,0.016-0.164,0.026-0.21,0.033C9.282,7.177,9.33,7.327,9.376,7.476C9.303,7.504,9.26,7.52,9.22,7.535
		C9.165,7.786,9.298,7.995,9.371,8.23C9.285,8.248,9.208,8.264,9.115,8.283c0.066,0.216,0.126,0.413,0.184,0.605
		C9.223,8.92,9.174,8.94,9.13,8.958c0.077,0.226,0.145,0.425,0.212,0.622C9.26,9.593,9.196,9.604,9.133,9.614
		c0.025,0.268,0.244,0.449,0.225,0.7c-0.065,0.022-0.108,0.036-0.146,0.049c-0.023,0.289,0.251,0.499,0.205,0.776
		c-0.062,0.017-0.095,0.025-0.108,0.029c0.068,0.226,0.14,0.442,0.194,0.664c0.013,0.056-0.029,0.125-0.043,0.176
		c0.079,0.284,0.213,0.543,0.203,0.851c-0.006,0.17,0.058,0.344,0.097,0.514c0.058,0.247,0.179,0.486,0.088,0.765
		c-0.117-0.229-0.233-0.44-0.298-0.675c-0.063-0.233-0.2-0.447-0.192-0.701c-0.116-0.117-0.04-0.38-0.299-0.371
		c0.015-0.295-0.034-0.556-0.167-0.805c-0.043,0.038-0.069,0.06-0.094,0.082c-0.039-0.038-0.074-0.072-0.114-0.111
		c0.059-0.283-0.137-0.511-0.164-0.805c-0.074,0.042-0.122,0.068-0.187,0.104c-0.03-0.147-0.06-0.295-0.09-0.442
		c-0.042-0.202-0.125-0.321-0.288-0.423c-0.04-0.164-0.078-0.32-0.121-0.498C7.773,9.529,7.726,9.557,7.649,9.6
		c0.017-0.224-0.023-0.423-0.131-0.626C7.466,9.01,7.428,9.036,7.384,9.066C7.177,8.905,7.313,8.571,7.093,8.409
		c-0.037,0.028-0.061,0.045-0.106,0.08C6.927,8.32,6.875,8.173,6.821,8.017C6.763,8.062,6.738,8.089,6.706,8.104
		C6.688,8.112,6.66,8.099,6.605,8.092c0.016-0.171,0.015-0.35-0.1-0.5C6.487,7.605,6.472,7.621,6.453,7.63
		C6.422,7.646,6.389,7.656,6.356,7.669c-0.075-0.21-0.148-0.411-0.224-0.623C6.06,7.081,6.012,7.104,5.954,7.132
		c-0.04-0.227-0.067-0.465-0.34-0.457C5.472,6.55,5.547,6.341,5.379,6.259C5.345,6.284,5.322,6.301,5.307,6.312
		C5.243,6.196,5.208,6.072,5.127,6C4.817,5.728,4.679,5.329,4.4,5.034C4.288,4.915,4.221,4.752,4.103,4.561
		c-0.01,0.1-0.029,0.146-0.014,0.166C4.273,4.959,4.317,5.251,4.43,5.514c0.044,0.103,0.033,0.182-0.046,0.254
		c0.15,0.311,0.157,0.356,0.088,0.534C4.559,6.45,4.645,6.598,4.731,6.746C4.694,6.762,4.645,6.785,4.588,6.811
		c0.092,0.154,0.176,0.292,0.25,0.416c-0.044,0.06-0.072,0.097-0.097,0.129c0.11,0.149,0.21,0.285,0.314,0.426
		C4.979,7.814,4.934,7.834,4.88,7.856C4.99,8.071,5.21,8.155,5.289,8.368c-0.046,0.015-0.078,0.024-0.11,0.035
		C5.146,8.415,5.113,8.426,5.084,8.436c0.22,0.22,0.4,0.399,0.602,0.603C5.567,9.065,5.497,9.081,5.4,9.103
		c0.168,0.152,0.31,0.279,0.465,0.419C5.847,9.56,5.816,9.62,5.798,9.658c0.056,0.261,0.395,0.241,0.447,0.499
		c-0.057,0.021-0.1,0.038-0.169,0.063c0.162,0.145,0.314,0.283,0.49,0.44c-0.07,0.03-0.119,0.051-0.19,0.081
		c0.177,0.166,0.347,0.325,0.525,0.492c-0.021,0.041,0.022,0.102-0.007,0.16C7.076,11.524,6.5,11.647,7.5,11.777
		c0,0.079,0,0.162,0,0.238c0,0.126,0.261,0.244,0.438,0.372c0.004,0.035-0.026,0.093-0.021,0.148
		c0.196,0.196,0.375,0.384,0.562,0.583c0.114,0.122,0.177,0.307,0.312,0.378c0.33,0.172,0.47,0.504,0.716,0.745
		c0.053,0.052,0.051,0.159,0.084,0.268c-0.268-0.126-0.644-0.497-1.005-0.972c-0.049,0.027-0.099,0.055-0.126,0.07
		c-0.162-0.215-0.31-0.413-0.461-0.613c-0.034,0.034-0.051,0.052-0.089,0.09c-0.146-0.176-0.292-0.351-0.432-0.519
		c-0.056,0.036-0.094,0.061-0.116,0.075c-0.155-0.167-0.298-0.321-0.436-0.468c-0.069,0.04-0.105,0.062-0.122,0.071
		c-0.206-0.09-0.257-0.346-0.48-0.42c-0.014,0.066-0.021,0.1-0.035,0.168c-0.167-0.194-0.316-0.367-0.464-0.54
		c-0.05,0.05-0.094,0.094-0.129,0.129c-0.172-0.173-0.344-0.345-0.517-0.518c-0.077,0.071-0.137,0.125-0.19,0.175
		c-0.154-0.138-0.289-0.259-0.423-0.379c-0.033,0.025-0.07,0.053-0.102,0.078c-0.14-0.088-0.267-0.169-0.392-0.248
		c-0.042,0.037-0.07,0.06-0.095,0.081c-0.129-0.092-0.259-0.185-0.39-0.277c-0.018,0.019-0.033,0.047-0.054,0.051
		c-0.032,0.007-0.07,0.007-0.1-0.006c-0.411-0.175-0.855-0.264-1.246-0.494c-0.042-0.025-0.119,0.008-0.18,0.014
		C2,10.083,1.99,10.105,1.98,10.127c0.52,0.11,0.751,0.58,1.145,0.847c0.091,0.24,0.325,0.315,0.528,0.455
		c-0.027,0.046-0.054,0.093-0.087,0.151c0.075,0.055,0.153,0.158,0.229,0.158c0.225,0,0.2,0.167,0.231,0.301
		c0.146,0.086,0.288,0.169,0.436,0.256c-0.044,0.045-0.062,0.062-0.102,0.102c0.121,0.058,0.259,0.088,0.34,0.173
		c0.097,0.102,0.3,0.006,0.326,0.174C5,12.806,4.98,12.848,4.949,12.917c0.188,0.045,0.355,0.085,0.54,0.13
		c0.003,0.062,0.008,0.146,0.013,0.246c0.19,0.064,0.385,0.13,0.582,0.197c0.005,0.056,0.01,0.115,0.013,0.149
		c0.248,0.142,0.592,0.068,0.695,0.394c0.23,0.038,0.453,0.074,0.696,0.113c0.149,0.13,0.195,0.127,0.448,0.208
		c0.432,0.135,0.853,0.3,1.318,0.467c-0.341,0.141-0.614-0.067-0.869-0.028C8.28,14.847,8.2,14.836,8.122,14.878
		C7.831,14.767,7.749,14,7.443,15c-0.141,0-0.298,0-0.453,0c-0.008,0-0.032,0.185-0.038,0.239C6.801,15.281,6.5,15.375,6.5,15.415
		c0,0.061,0,0.11,0,0.16c0,0.053-0.237,0.228-0.353,0.357c-0.124,0.139-0.283,0.238-0.439,0.346
		c-0.14,0.096-0.249,0.217-0.369,0.344c0.436-0.187,0.897-0.268,1.345-0.386c0.108-0.028,0.205-0.058,0.304,0.013
		c0.027,0.019,0.064-0.038,0.092-0.026C7.141,16.165,7.194,16,7.248,16c0.149,0,0.297,0,0.438,0c0.114,0,0.241-0.108,0.393-0.079
		c0.143,0.026,0.251-0.021,0.369-0.067c0.095-0.037,0.182-0.077,0.258-0.117c0.057,0.04,0.095,0.075,0.133,0.103
		c0.372-0.204,0.73-0.397,1.087-0.593c0.032,0.032,0.058,0.06,0.084,0.086c0.069,0.477-0.018,0.949-0.049,1.421
		c-0.013,0.083-0.024,0.168-0.032,0.251c-0.001,0.005-0.002,0.011-0.003,0.016c-0.043,0.083-0.056,0.165-0.055,0.249
		c-0.031,0.156-0.076,0.25,0.039,0.266c0.005,0.025,0.01,0.05,0.015,0.075c0.005-0.023,0.008-0.048,0.009-0.073
		c0.028,0.001,0.062,0,0.104-0.006l0.074,0.012c-0.025-0.032-0.04-0.078-0.046-0.131c-0.023-0.078-0.045-0.175-0.062-0.28
		c0.016-0.059,0.025-0.118,0.026-0.176c0.001,0.034,0.004,0.068,0.008,0.104c0.009-0.012,0.251-0.026,0.259-0.041
		c-0.008-0.06,0.201-0.119,0.201-0.176c0,0.027,0,0.055,0,0.083c0-0.03-0.239-0.06-0.244-0.09c-0.002-0.016-0.12-0.03-0.121-0.045
		c0.005,0.018-0.049,0.035-0.045,0.053c0.005-0.092-0.009-0.18,0.01-0.268c0.007-0.02-0.001-0.041,0.005-0.062
		c0.042,0.158,0.03,0.377-0.034,0.505c0.005,0.042,0.006,0.084,0.009,0.127c0.029-0.2,0.089-0.412,0.109-0.507
		c0.086-0.495,0.197-0.954,0.16-1.449c-0.024,0.272-0.099,0.582-0.149,0.854c-0.025,0.142-0.065,0.276-0.1,0.41
		c0.001-0.012,0.002-0.023,0.001-0.034c-0.001-0.043-0.002-0.086-0.003-0.13c0.013-0.049,0.026-0.098,0.039-0.146
		c0.062-0.199,0.112-0.396,0.148-0.607c0.019-0.092,0.03-0.282,0.076-0.397c0.031-0.009,0.062-0.018,0.094-0.027
		c0,0,0.016,0.03,0.036,0.034c0.345,0.054,0.658,0.205,0.986,0.307c0.378,0.118,0.759,0.251,1.168,0.236
		c0.052-0.002,0.104,0.047,0.159,0.062c0.124,0.032,0.275,0.113,0.368,0.071c0.15-0.068,0.253-0.091,0.395,0.006
		c0.056,0.039,0.161-0.338,0.234-0.338C13.817,15.424,13.824,15,13.833,15c0.186,0,0.369,0,0.501,0c0.106,0,0.165,0.252,0.229,0.227
		c0.205-0.079,0.425,0.052,0.634,0.006c0.292-0.065,0.608,0.069,0.914,0.069c-0.148-0.107-0.323-0.565-0.454-0.658
		C15.51,14.541,15.272,15,15.204,14c-0.115,0-0.213,0-0.314,0c-0.139,0-0.339,0.324-0.514,0.323
		c-0.192-0.168-0.192,0.067-0.398,0.172c-0.037-0.052-0.08,0.005-0.126-0.061c-0.136,0.021-0.26,0.099-0.389,0.119
		c-0.009-0.022-0.025-0.036-0.047-0.09c-0.057,0.007-0.138,0.007-0.168,0.04c-0.074,0.081-0.184,0.086-0.237,0.054
		c-0.236-0.147-0.416,0.036-0.563,0.072c-0.141-0.027-0.233-0.064-0.32-0.056c-0.282,0.029-0.562,0.076-0.843,0.116
		c-0.01,0.001-0.016,0.021-0.027,0.025c-0.152,0.072-0.309,0.114-0.537,0.045c0.475-0.2,0.896-0.396,1.33-0.554
		c0.239-0.087,0.454-0.189,0.609-0.375c0.225-0.01,0.38-0.14,0.546-0.245c0.108-0.068,0.212-0.15,0.355-0.13
		c0.138,0.02,0.233-0.065,0.365-0.125c-0.049-0.064-0.077-0.101-0.124-0.163c0.254-0.112,0.505-0.224,0.753-0.333
		c-0.03-0.054-0.057-0.103-0.09-0.161c0.154-0.046,0.286-0.084,0.377-0.111c0.081-0.09,0.14-0.158,0.197-0.222
		c-0.008-0.019-0.027-0.06-0.046-0.102c0.186-0.097,0.359-0.187,0.521-0.271c0.009-0.083,0.016-0.141,0.02-0.17
		c0.162-0.105,0.305-0.199,0.448-0.292c-0.04-0.049-0.06-0.074-0.09-0.112c0.151-0.086,0.292-0.166,0.445-0.251
		c-0.006-0.179,0.041-0.313,0.263-0.292c0.035,0.003,0.077-0.069,0.101-0.091c-0.033-0.068-0.053-0.109-0.073-0.149
		C16.851,10.481,17.425,9.914,17.677,9.568z M10.101,15.918c0.001-0.031,0.002-0.062,0.003-0.093
		c0.013-0.201,0.046-0.401,0.073-0.601c0.002-0.021,0.023-0.039,0.022-0.038c0.011-0.003,0.022-0.006,0.034-0.01
		C10.22,15.436,10.158,15.677,10.101,15.918z"/>
	<path fill="#D7FFC0" d="M10.067,17.412c0.007,0.025,0.015,0.048,0.022,0.069c0-0.109-0.002-0.223-0.012-0.335
		C10.064,17.242,10.058,17.335,10.067,17.412z"/>
</g>
</svg>
